<?xml version="1.0" encoding="UTF-8" standalone="no"?> <svg
   xmlns:dc="http://purl.org/dc/elements/1.1/"
   xmlns:cc="http://creativecommons.org/ns#"
   xmlns:rdf="http://www.w3.org/1999/02/22-rdf-syntax-ns#"
   xmlns:svg="http://www.w3.org/2000/svg"
   xmlns="http://www.w3.org/2000/svg"
   xmlns:sodipodi="http://sodipodi.sourceforge.net/DTD/sodipodi-0.dtd"
   xmlns:inkscape="http://www.inkscape.org/namespaces/inkscape"
   version="1.1"
   id="svg3387"
   viewBox="0 0 1658.2665 177.16538"
   height="50mm"
   width="468mm"
   inkscape:version="0.91 r13725"
   sodipodi:docname="logo.svg">
  <sodipodi:namedview
     pagecolor="#ffffff"
     bordercolor="#666666"
     borderopacity="1"
     objecttolerance="10"
     gridtolerance="10"
     guidetolerance="10"
     inkscape:pageopacity="0"
     inkscape:pageshadow="2"
     inkscape:window-width="1920"
     inkscape:window-height="1017"
     id="namedview7"
     showgrid="false"
     inkscape:zoom="0.76631519"
     inkscape:cx="923.96355"
     inkscape:cy="-90.590765"
     inkscape:window-x="-8"
     inkscape:window-y="-8"
     inkscape:window-maximized="1"
     inkscape:current-layer="text3335" />
  <defs
     id="defs3389" />
  <metadata
     id="metadata3392">
    <rdf:RDF>
      <cc:Work
         rdf:about="">
        <dc:format>image/svg+xml</dc:format>
        <dc:type
           rdf:resource="http://purl.org/dc/dcmitype/StillImage" />
        <dc:title></dc:title>
      </cc:Work>
    </rdf:RDF>
  </metadata>
  <g
     style="font-style:normal;font-weight:normal;font-size:40px;line-height:125%;font-family:sans-serif;letter-spacing:0px;word-spacing:0px;fill:#000000;fill-opacity:1;stroke:none;stroke-width:1px;stroke-linecap:butt;stroke-linejoin:miter;stroke-opacity:1"
     id="text3335">
    <path
       style="font-style:normal;font-variant:normal;font-weight:normal;font-stretch:normal;font-size:180.00003052px;font-family:'Open Sans';-inkscape-font-specification:'Open Sans'"
       d="M 277.55859 23.296875 C 265.31249 23.296875 255.46875 26.226562 248.02734 32.085938 C 240.58594 37.945312 236.86523 45.826171 236.86523 55.728516 C 236.86523 65.162109 239.41406 72.808593 244.51172 78.667969 C 249.66797 
84.527343 258.22266 89.595702 270.17578 93.873047 C 278.73047 96.919922 285.08789 99.644527 289.24805 102.04688 C 293.4668 104.44921 296.45508 107.08594 298.21289 109.95703 C 300.0293 112.76953 300.9375 116.40234 300.9375 
120.85547 C 300.9375 126.02791 299.44578 130.33315 296.47656 133.7793 L 313.82422 132.50977 C 315.30513 128.604 316.05469 124.2541 316.05469 119.44922 C 316.05469 110.66015 313.50586 103.51172 308.4082 98.003906 C 303.36914 
92.496094 294.11132 87.339845 280.63477 82.535156 C 272.60742 79.664062 266.63086 77.05664 262.70508 74.712891 C 258.83789 72.310547 256.08399 69.703125 254.44336 66.890625 C 252.80273 64.019531 251.98242 60.357423 251.98242 
55.904297 C 251.98242 49.86914 254.20898 45.152344 258.66211 41.753906 C 263.11524 38.355468 269.29688 36.65625 277.20703 36.65625 C 287.22656 36.65625 297.53906 38.882812 308.14453 43.335938 L 312.80273 30.328125 C 302.08009 
25.640625 290.33203 23.296875 277.55859 23.296875 z M 958.53516 23.296875 C 946.28906 23.296875 936.44531 26.226562 929.00391 32.085938 C 921.5625 37.945312 917.8418 45.826171 917.8418 55.728516 C 917.8418 65.162109 920.39063 
72.808593 925.48828 78.667969 C 928.10777 81.644661 931.60875 84.415984 935.98242 86.984375 L 967.28516 84.693359 C 965.47618 83.9672 963.60496 83.245928 961.61133 82.535156 C 953.58399 79.664062 947.60743 77.05664 943.68164 
74.712891 C 939.81445 72.310547 937.06055 69.703125 935.41992 66.890625 C 933.7793 64.019531 932.95898 60.357423 932.95898 55.904297 C 932.95898 49.86914 935.18555 45.152344 939.63867 41.753906 C 944.0918 38.355468 950.27343 
36.65625 958.18359 36.65625 C 968.20313 36.65625 978.51563 38.882812 989.12109 43.335938 L 993.7793 30.328125 C 983.05664 25.640625 971.3086 23.296875 958.53516 23.296875 z M 1130.0098 23.296875 C 1116.4746 23.296875 1104.668 
25.96289 1094.5898 31.294922 C 1084.5117 36.56836 1076.7773 44.24414 1071.3867 54.322266 C 1067.6852 61.27791 1065.2725 69.04027 1064.1406 77.605469 L 1080.2461 76.427734 C 1082.0127 65.95717 1086.0525 57.351263 1092.3926 
50.630859 C 1101.1816 41.314453 1113.3984 36.65625 1129.043 36.65625 C 1139.7656 36.65625 1150.9277 39.117188 1162.5293 44.039062 L 1168.3301 30.855469 C 1156.4941 25.816406 1143.7207 23.296875 1130.0098 23.296875 z M 162.77344 
24.615234 L 114.55078 147.0918 L 130.0625 145.95703 L 142.91016 112.76953 L 194.41406 112.76953 L 205.25 140.45508 L 220.28516 139.35547 L 175.3418 24.615234 L 162.77344 24.615234 z M 686.25 24.615234 L 653.55664 107.65039 L 
729.17578 102.11719 L 698.81836 24.615234 L 686.25 24.615234 z M 1573.2422 24.615234 L 1566.8633 40.818359 L 1591.4531 39.019531 L 1585.8105 24.615234 L 1573.2422 24.615234 z M 11.074219 25.142578 L 53.876953 104.50781 L 
53.876953 151.5332 L 68.994141 150.42578 L 68.994141 103.80469 L 111.88477 25.142578 L 95.712891 25.142578 L 61.435547 89.390625 L 27.421875 25.142578 L 11.074219 25.142578 z M 342.33398 25.142578 L 342.33398 130.42383 L 
357.27539 129.33203 L 357.27539 93.169922 L 424.95117 93.169922 L 424.95117 124.37891 L 439.89258 123.28516 L 439.89258 25.142578 L 424.95117 25.142578 L 424.95117 79.810547 L 357.27539 79.810547 L 357.27539 25.142578 L 342.33398 
25.142578 z M 521.98242 25.142578 L 521.98242 117.2793 L 536.92383 116.18555 L 536.92383 38.0625 L 558.63281 38.0625 C 575.21484 38.0625 587.69531 42.310546 596.07422 50.806641 C 604.51172 59.302734 608.73047 71.929687 608.73047 
88.6875 C 608.73047 97.218293 607.62172 104.71188 605.4082 111.17383 L 622.10742 109.95117 C 623.73557 103.39002 624.55078 96.12631 624.55078 88.160156 C 624.55078 68.296874 619.01367 52.828126 607.93945 41.753906 C 596.86523 
30.679687 581.33789 25.142578 561.35742 25.142578 L 521.98242 25.142578 z M 749.35547 25.142578 L 775.72266 98.710938 L 790.91016 97.599609 L 765.17578 25.142578 L 749.35547 25.142578 z M 840.41016 25.142578 L 815.29883 95.814453 
L 831.44531 94.632812 L 856.49414 25.142578 L 840.41016 25.142578 z M 874.24805 25.142578 L 874.24805 91.501953 L 889.18945 90.408203 L 889.18945 25.142578 L 874.24805 25.142578 z M 1199.8828 25.142578 L 1199.8828 67.671875 L 
1214.8242 66.578125 L 1214.8242 25.142578 L 1199.8828 25.142578 z M 1283.291 25.142578 L 1283.291 61.568359 L 1298.2324 60.474609 L 1298.2324 25.142578 L 1283.291 25.142578 z M 1332.334 25.142578 L 1332.334 57.980469 L 1347.2754 
56.886719 L 1347.2754 38.0625 L 1363.9746 38.0625 C 1375.7519 38.0625 1384.4238 40.142578 1389.9902 44.302734 C 1393.0894 46.618963 1395.3236 49.60922 1396.6973 53.269531 L 1412.6973 52.099609 C 1408.5687 34.130842 1392.8879 
25.142578 1365.6445 25.142578 L 1332.334 25.142578 z M 1424.5312 25.142578 L 1424.5312 38.414062 L 1465.2246 38.414062 L 1465.2246 48.255859 L 1480.166 47.162109 L 1480.166 38.414062 L 1520.8594 38.414062 L 1520.8594 25.142578 L 
1424.5312 25.142578 z M 168.83789 40.962891 C 170.88867 48.287109 172.88086 54.46875 174.81445 59.507812 L 189.75586 99.322266 L 148.18359 99.322266 L 163.30078 59.507812 C 165.70313 52.769531 167.54883 46.58789 168.83789 
40.962891 z M 692.31445 40.962891 C 694.36523 48.287109 696.35742 54.46875 698.29102 59.507812 L 713.23242 99.322266 L 671.66016 99.322266 L 686.77734 59.507812 C 689.17969 52.769531 691.02539 46.58789 692.31445 40.962891 z M 
1601.2539 64.044922 L 1587.2852 64.839844 L 1600.2246 99.322266 L 1558.6523 99.322266 L 1571.4004 65.746094 L 1556.7188 66.582031 L 1522.4414 153.63867 L 1537.5586 153.63867 L 1553.3789 112.76953 L 1604.8828 112.76953 L 1620.8789 
153.63867 L 1636.3477 153.63867 L 1601.2539 64.044922 z M 1480.166 70.945312 L 1465.2246 71.796875 L 1465.2246 153.63867 L 1480.166 153.63867 L 1480.166 70.945312 z M 1412.25 74.814453 L 1396.0098 75.740234 C 1394.5311 79.057672 
1392.3522 81.765177 1389.4629 83.853516 C 1383.5449 88.130858 1373.9649 90.269531 1360.7227 90.269531 L 1347.2754 90.269531 L 1347.2754 78.517578 L 1332.334 79.369141 L 1332.334 153.63867 L 1347.2754 153.63867 L 1347.2754 
103.10156 L 1362.3926 103.10156 C 1378.916 103.10156 1391.6016 99.615236 1400.4492 92.642578 C 1406.3255 88.003403 1410.2509 82.055392 1412.25 74.814453 z M 1298.2324 81.3125 L 1283.291 82.164062 L 1283.291 108.81445 C 1283.291 
119.59571 1280.3614 127.88672 1274.502 133.6875 C 1268.6426 139.42969 1260.2929 142.30078 1249.4531 142.30078 C 1238.0859 142.30078 1229.4727 139.42969 1223.6133 133.6875 C 1217.7539 127.94531 1214.8242 119.71289 1214.8242 
108.99023 L 1214.8242 86.066406 L 1199.8828 86.917969 L 1199.8828 107.93555 C 1199.8828 122.70118 1204.1016 134.30273 1212.5391 142.74023 C 1221.0351 151.17773 1233.0175 155.39648 1248.4863 155.39648 C 1263.9551 155.39648 
1276.1133 151.20703 1284.9609 142.82812 C 1293.8086 134.44923 1298.2324 122.93555 1298.2324 108.28711 L 1298.2324 81.3125 z M 1170.2637 88.605469 L 1126.582 91.09375 L 1126.582 99.673828 L 1155.3223 99.673828 L 1155.3223 
139.22461 C 1146.8262 141.27539 1138.1249 142.30078 1129.2188 142.30078 C 1112.8125 142.30078 1100.3613 137.81836 1091.8652 128.85352 C 1084.1578 120.66441 1079.9814 108.96777 1079.3145 93.787109 L 1063.5254 94.6875 C 1064.382 
113.01092 1069.7463 127.48404 1079.6484 138.08203 C 1090.4882 149.625 1105.6348 155.39648 1125.0879 155.39648 C 1134.3458 155.39648 1142.4903 154.83984 1149.5215 153.72656 C 1156.5528 152.61328 1163.4668 150.97266 1170.2637 
148.80469 L 1170.2637 88.605469 z M 990.14648 98.869141 L 966.72852 100.20312 C 968.02831 100.8376 969.19434 101.45193 970.22461 102.04688 C 974.44336 104.44921 977.43164 107.08594 979.18945 109.95703 C 981.00586 112.76953 
981.91406 116.40234 981.91406 120.85547 C 981.91406 127.59375 979.39453 132.86719 974.35547 136.67578 C 969.3164 140.42578 961.81641 142.30078 951.85547 142.30078 C 945.76172 142.30078 939.60938 141.65625 933.39844 140.36719 C 
927.1875 139.07813 921.4453 137.32032 916.17188 135.09375 L 916.17188 149.50781 C 924.37499 153.43359 936.09376 155.39648 951.32812 155.39648 C 965.39062 155.39648 976.52344 152.23242 984.72656 145.9043 C 992.92969 139.57617 
997.03125 130.75781 997.03125 119.44922 C 997.03125 111.11184 994.73364 104.25386 990.14648 98.869141 z M 889.18945 104.62305 L 874.24805 105.47461 L 874.24805 153.63867 L 889.18945 153.63867 L 889.18945 104.62305 z M 826.55859 
108.19141 L 810.58203 109.10156 C 807.4029 118.09063 804.80236 127.10621 802.79297 136.14844 C 800.91839 127.65771 798.41265 118.9303 795.29297 109.97266 L 780.07031 110.83984 L 795.41016 153.63867 L 810.17578 153.63867 L 
826.55859 108.19141 z M 733.62891 113.48633 L 718.50781 114.34961 L 733.88672 153.63867 L 749.35547 153.63867 L 733.62891 113.48633 z M 664.58594 117.42188 L 649.36719 118.28906 L 635.44922 153.63867 L 650.56641 153.63867 L 
664.58594 117.42188 z M 618.70898 120.03516 L 600.625 121.06641 C 599.06543 123.45879 597.29363 125.65204 595.2832 127.62305 C 586.31836 136.35351 572.92969 140.71875 555.11719 140.71875 L 536.92383 140.71875 L 536.92383 
124.69727 L 521.98242 125.54883 L 521.98242 153.63867 L 557.57812 153.63867 C 579.19922 153.63867 595.75196 148.04298 607.23633 136.85156 C 612.08284 132.12806 615.89736 126.51466 618.70898 120.03516 z M 439.89258 130.22656 L 
424.95117 131.07812 L 424.95117 153.63867 L 439.89258 153.63867 L 439.89258 130.22656 z M 357.27539 134.93359 L 342.33398 135.78516 L 342.33398 153.63867 L 357.27539 153.63867 L 357.27539 134.93359 z M 235.19531 135.09375 L 
235.19531 138.26367 L 242.38281 137.73828 C 239.89939 136.94433 237.49971 136.06672 235.19531 135.09375 z M 311.35547 137.55078 L 289.89844 138.77344 C 285.09797 141.12217 278.76209 142.30078 270.87891 142.30078 C 265.48999 
142.30078 260.05477 141.79521 254.57422 140.78711 L 235.19531 141.89062 L 235.19531 149.50781 C 243.39844 153.43359 255.11719 155.39648 270.35156 155.39648 C 284.41407 155.39648 295.54687 152.23242 303.75 145.9043 C 306.88631 
143.48486 309.41827 140.69824 311.35547 137.55078 z M 221.58203 142.66602 L 206.45312 143.5293 L 210.41016 153.63867 L 225.87891 153.63867 L 221.58203 142.66602 z M 129.30078 147.92578 L 113.87695 148.80469 L 111.97266 153.63867 
L 127.08984 153.63867 L 129.30078 147.92578 z M 68.994141 151.36133 L 53.876953 152.22266 L 53.876953 153.63867 L 68.994141 153.63867 L 68.994141 151.36133 z "
       transform="translate(-6.7138676e-4,0)"
       id="path4162" />
  </g>
  <path
     style="fill:#000000;fill-opacity:0"
     id="path4151"
     sodipodi:type="arc"
     sodipodi:cx="1048.5234"
     sodipodi:cy="37.862366"
     sodipodi:rx="22.836555"
     sodipodi:ry="26.425158"
     sodipodi:start="4.657601"
     sodipodi:end="4.8390548"
     d="m 1047.2729,11.476859 a 22.836555,26.425158 0 0 1 4.1354,0.172052 l -2.8849,26.213455 z" /> </svg>
